<svg xmlns="http://www.w3.org/2000/svg" width="24" height="24" viewBox="0 0 24 24">
    <path fill="#CCC" fill-rule="evenodd" d="M10 20h4a2 2 0 1 1-4 0zm8.88-5.12a3 3 0 0 1-.88-2.12V10a6 6 0 0 0-1.2-3.6l-.9-1.2A3 3 0 0 0 13.5 4H13V2.5a.5.5 0 0 0-.5-.5h-1a.5.5 0 0 0-.5.5V4h-.5a3 3 0 0 0-2.4 1.2l-.9 1.2A6 6 0 0 0 6 10v2.76a3 3 0 0 1-.88 2.12l-.83.83a1 1 0 0 0-.29.7V17a1 1 0 0 0 1 1h14a1 1 0 0 0 1-1v-.59a1 1 0 0 0-.29-.7l-.83-.83zM5.59 5.21a.36.36 0 0 0-.06-.5l-1-.78a.4.4 0 0 0-.3-.09A.37.37 0 0 0 4 4a10.05 10.05 0 0 0-2 5.47.47.47 0 0 0 .14.37.48.48 0 0 0 .36.16h1a.51.51 0 0 0 .5-.48 8.12 8.12 0 0 1 1.59-4.31zM20 4a.38.38 0 0 0-.27-.16.44.44 0 0 0-.31.09l-1 .78a.36.36 0 0 0-.06.5A8.12 8.12 0 0 1 20 9.52a.5.5 0 0 0 .49.48h1a.5.5 0 0 0 .36-.16.55.55 0 0 0 .15-.37A10.13 10.13 0 0 0 20 4z"/>
</svg>
