<svg xmlns="http://www.w3.org/2000/svg" xmlns:xlink="http://www.w3.org/1999/xlink" width="24" height="24" viewBox="0 0 24 24">
    <defs>
        <path id="a" d="M7 11a2 2 0 0 1 2 2v5a2 2 0 0 1-2 2H2a2 2 0 0 1-2-2v-5a2 2 0 0 1 2-2h5zm9 0v3h3v2h-3v3h-2v-3h-3v-2h3v-3h2zm-9 2H2v5h5v-5zM7 0a2 2 0 0 1 2 2v5a2 2 0 0 1-2 2H2a2 2 0 0 1-2-2V2a2 2 0 0 1 2-2h5zm11 0a2 2 0 0 1 2 2v5a2 2 0 0 1-2 2h-5a2 2 0 0 1-2-2V2a2 2 0 0 1 2-2h5zM7 2H2v5h5V2zm11 0h-5v5h5V2z"/>
    </defs>
    <use fill="#000" fill-rule="nonzero" transform="translate(2 2)" xlink:href="#a"/>
</svg>
